HIERARCHY
ROOT Hips
{
    OFFSET 0.000000 0.000000 0.000000
    CHANNELS 6 Xposition Yposition Zposition Zrotation Xrotation Yrotation
    JOINT Spine
    {
        OFFSET -0.000000 8.603107 0.000000
        CHANNELS 3 Zrotation Xrotation Yrotation
        JOINT Spine1
        {
            OFFSET -0.000000 23.906662 0.000000
            CHANNELS 3 Zrotation Xrotation Yrotation
            JOINT Neck
            {
                OFFSET -0.000000 23.808481 2.164407
                CHANNELS 3 Zrotation Xrotation Yrotation
                JOINT Head
                {
                    OFFSET -0.000000 14.688231 -2.098319
                    CHANNELS 3 Zrotation Xrotation Yrotation
                    End Site
                    {
                        OFFSET -0.000000 26.228985 0.000000
                    }
                }
            }
            JOINT LeftShoulder
            {
                OFFSET 4.178941 22.658146 -0.129871
                CHANNELS 3 Zrotation Xrotation Yrotation
                JOINT LeftArm
                {
                    OFFSET 9.497952 0.000000 0.000000
                    CHANNELS 3 Zrotation Xrotation Yrotation
                    JOINT LeftForeArm
                    {
                        OFFSET 38.855015 0.000000 0.000000
                        CHANNELS 3 Zrotation Xrotation Yrotation
                        JOINT LeftHand
                        {
                            OFFSET 24.940550 0.000000 0.000000
                            CHANNELS 3 Zrotation Xrotation Yrotation
                            End Site
                            {
                                OFFSET 15.737392 0.000000 0.000000
                            }
                        }
                    }
                }
            }
            JOINT RightShoulder
            {
                OFFSET -4.145384 22.658146 -0.129871
                CHANNELS 3 Zrotation Xrotation Yrotation
                JOINT RightArm
                {
                    OFFSET -9.497952 0.000000 0.000000
                    CHANNELS 3 Zrotation Xrotation Yrotation
                    JOINT RightForeArm
                    {
                        OFFSET -38.855015 0.000000 0.000000
                        CHANNELS 3 Zrotation Xrotation Yrotation
                        JOINT RightHand
                        {
                            OFFSET -24.940550 0.000000 0.000000
                            CHANNELS 3 Zrotation Xrotation Yrotation
                            End Site
                            {
                                OFFSET -15.737392 0.000000 0.000000
                            }
                        }
                    }
                }
            }
        }
    }
    JOINT LeftUpLeg
    {
        OFFSET 10.491594 0.000000 0.000000
        CHANNELS 3 Zrotation Xrotation Yrotation
        JOINT LeftLeg
        {
            OFFSET -0.000000 -46.080647 0.000000
            CHANNELS 3 Zrotation Xrotation Yrotation
            JOINT LeftFoot
            {
                OFFSET -0.000000 -50.184704 0.000000
                CHANNELS 3 Zrotation Xrotation Yrotation
                JOINT LeftToeBase
                {
                    OFFSET -0.000000 -6.819536 15.737392
                    CHANNELS 3 Zrotation Xrotation Yrotation
                    End Site
                    {
                        OFFSET -0.000000 0.000000 4.196638
                    }
                }
            }
        }
    }
    JOINT RightUpLeg
    {
        OFFSET -10.491594 0.000000 0.000000
        CHANNELS 3 Zrotation Xrotation Yrotation
        JOINT RightLeg
        {
            OFFSET -0.000000 -46.080647 0.000000
            CHANNELS 3 Zrotation Xrotation Yrotation
            JOINT RightFoot
            {
                OFFSET -0.000000 -50.184704 0.000000
                CHANNELS 3 Zrotation Xrotation Yrotation
                JOINT RightToeBase
                {
                    OFFSET -0.000000 -6.819536 15.737392
                    CHANNELS 3 Zrotation Xrotation Yrotation
                    End Site
                    {
                        OFFSET -0.000000 0.000000 4.196638
                    }
                }
            }
        }
    }
}
MOTION
Frames:    10
Frame Time:    0.008333
-9.933688    103.378418    40.953644    0.833008    -0.520671    94.753456    -0.127767    -6.701124    0.200940    1.117408    1.341290    0.195537    3.893638    14.021666    0.906116    0.384674    -2.315830    0.923544    12.681375    0.585423    -11.327217    -15.683517    3.363485    10.456344    1.876991    -2.603009    1.744909    1.736972    -2.625983    0.370457    -15.913560    1.434686    -9.046235    13.661129    -0.181916    0.505487    -0.322744    -5.199282    -0.765541    -1.829644    -5.170570    -1.940575    1.733410    0.985720    -0.214568    -3.187645    10.284675    -5.488811    3.651148    -9.066212    10.391685    0.000000    0.000000    0.000000    2.824673    6.789623    -3.556976    2.176670    -1.042811    -1.728065    -3.250324    -3.161328    -12.353772    0.000000    0.000000    0.000000    
-9.966302    103.381554    40.940941    0.795691    -0.518793    94.758583    -0.147523    -6.684969    0.184705    1.188927    1.304137    0.180017    3.777447    14.067580    0.926563    0.478253    -2.370833    0.964306    12.460278    0.677367    -11.398209    -15.510284    3.357181    10.528081    1.887418    -2.581082    1.739981    1.542624    -2.606259    0.259707    -15.988398    1.480572    -8.960577    13.715982    -0.185342    0.474055    -0.421293    -5.081509    -0.862537    -1.319052    -5.064472    -1.761639    1.720356    0.938832    -0.191506    -3.184780    10.265300    -5.472611    3.664871    -9.037056    10.351575    0.000000    0.000000    0.000000    2.813405    6.756477    -3.409399    2.173638    -1.088156    -1.857714    -3.230702    -3.135661    -12.376240    0.000000    0.000000    0.000000    
-9.981249    103.381981    40.935677    0.786235    -0.525596    94.759331    -0.140428    -6.665994    0.193319    1.175650    1.289495    0.188505    3.813937    14.074926    0.918428    0.477342    -2.394040    0.955279    12.492085    0.670168    -11.435408    -15.514841    3.315209    10.532596    1.867005    -2.596774    1.753881    1.502617    -2.622634    0.205180    -15.948873    1.473016    -8.969833    13.690179    -0.150744    0.467438    -0.328235    -5.187314    -0.815901    -1.787549    -5.160126    -1.899613    1.725700    0.930073    -0.195175    -3.190987    10.249187    -5.480862    3.678811    -9.031495    10.362652    0.000000    0.000000    0.000000    2.812985    6.733837    -3.402098    2.179878    -1.077432    -1.849294    -3.249490    -3.129750    -12.399065    0.000000    0.000000    0.000000    
-9.995956    103.384628    40.928478    0.777173    -0.525551    94.764313    -0.128230    -6.669647    0.187861    1.158772    1.320726    0.182057    3.802447    14.065217    0.918535    0.504599    -2.413570    0.959850    12.564758    0.612030    -11.462656    -15.609574    3.442963    10.594545    1.851719    -2.710823    1.706750    1.466438    -2.735581    0.220407    -15.954700    1.462389    -8.970229    13.697403    -0.174706    0.475224    -0.307616    -5.150819    -0.820561    -1.762286    -5.123857    -1.903146    1.718340    0.920044    -0.181249    -3.187721    10.233487    -5.456296    3.660765    -9.019302    10.325407    0.000000    0.000000    0.000000    2.808405    6.709110    -3.420710    2.179341    -1.064821    -1.837544    -3.253607    -3.127218    -12.399517    0.000000    0.000000    0.000000    
-10.008764    103.385757    40.922699    0.775091    -0.526480    94.766846    -0.124339    -6.653338    0.184823    1.149737    1.318392    0.179091    3.810627    14.074583    0.922842    0.513740    -2.414989    0.965946    12.591435    0.613138    -11.469403    -15.609838    3.370475    10.583266    1.823969    -2.720741    1.738035    1.523457    -2.745848    0.190705    -15.948547    1.437348    -8.961398    13.689981    -0.187101    0.467428    -0.369931    -4.989748    -0.884323    -1.252241    -4.973409    -1.762002    1.716270    0.923221    -0.197659    -3.191876    10.207454    -5.417171    3.666812    -9.000245    10.300141    0.000000    0.000000    0.000000    2.805089    6.700487    -3.409687    2.178051    -1.060585    -1.833554    -3.235472    -3.120119    -12.410070    0.000000    0.000000    0.000000    
-10.027644    103.392029    40.914116    0.763868    -0.501722    94.797623    -0.162022    -6.622232    0.175141    1.166519    1.286297    0.171791    3.824925    14.065181    0.916033    0.492794    -2.373073    0.954687    12.593369    0.608530    -11.497566    -15.608952    3.341693    10.564236    1.822283    -2.750455    1.779896    1.537076    -2.775443    0.245594    -15.950771    1.424084    -8.988264    13.677203    -0.209114    0.475968    -0.357893    -4.962406    -0.882354    -1.255358    -4.945731    -1.779997    1.682935    0.901948    -0.232046    -3.188981    10.200842    -5.426280    3.637987    -8.962986    10.312881    0.000000    0.000000    0.000000    2.774106    6.679500    -3.438332    2.183193    -1.055205    -1.829562    -3.240055    -3.119639    -12.417944    0.000000    0.000000    0.000000    
-10.042506    103.392876    40.908813    0.754098    -0.503221    94.802551    -0.141244    -6.606159    0.166840    1.132391    1.266757    0.162738    3.822228    14.095919    0.949171    0.516134    -2.362335    0.993986    12.610104    0.615489    -11.495423    -15.601995    3.327012    10.547297    1.812148    -2.828369    1.773022    1.661482    -2.850748    0.387921    -15.933766    1.429587    -8.960570    13.677035    -0.279616    0.466584    -0.356339    -4.944748    -0.877446    -1.311517    -4.926486    -1.840211    1.680124    0.886610    -0.229281    -3.190302    10.194367    -5.394202    3.641023    -8.955640    10.277441    0.000000    0.000000    0.000000    2.771013    6.659168    -3.459389    2.182268    -1.052590    -1.819923    -3.259855    -3.103216    -12.403177    0.000000    0.000000    0.000000    
-10.053256    103.391335    40.904762    0.744014    -0.527698    94.797691    -0.106450    -6.600976    0.170523    1.112590    1.256016    0.164443    3.821060    14.110113    0.941689    0.548835    -2.340497    0.991993    12.640473    0.615343    -11.508271    -15.623506    3.316443    10.549124    1.837512    -2.853968    1.765544    1.633400    -2.875945    0.442723    -15.909698    1.404037    -8.953190    13.654175    -0.273528    0.456909    -0.353739    -4.971777    -0.872659    -1.350912    -4.952492    -1.870724    1.707761    0.878184    -0.219615    -3.199193    10.178504    -5.387191    3.683505    -8.957755    10.261033    0.000000    0.000000    0.000000    2.793546    6.635437    -3.459144    2.174928    -1.045499    -1.825341    -3.246955    -3.090599    -12.388838    0.000000    0.000000    0.000000    
-10.066714    103.394791    40.899258    0.730159    -0.529219    94.808029    -0.083862    -6.596132    0.155878    1.079460    1.246851    0.149036    3.805170    14.088024    0.926026    0.585279    -2.262280    0.980850    12.646894    0.625644    -11.491703    -15.611017    3.320510    10.541128    1.848206    -2.909244    1.762190    1.630257    -2.930947    0.470602    -15.917004    1.405650    -8.942863    13.680076    -0.291962    0.476227    -0.296709    -5.145863    -0.810603    -1.855416    -5.115291    -2.025589    1.704187    0.860283    -0.225641    -3.197659    10.165858    -5.378877    3.664865    -8.943997    10.245877    0.000000    0.000000    0.000000    2.791004    6.618083    -3.433283    2.175413    -1.052719    -1.844284    -3.239127    -3.065760    -12.405506    0.000000    0.000000    0.000000    
-10.077352    103.397240    40.892143    0.727413    -0.527137    94.815979    -0.060363    -6.575621    0.148161    1.026820    1.225321    0.140582    3.681476    14.070947    0.915325    0.846936    -2.180860    1.013440    12.691497    0.634447    -11.504722    -15.625831    3.329625    10.551805    1.871531    -2.968241    1.763302    1.564112    -2.990639    0.468801    -15.864882    1.405066    -8.934783    13.652676    -0.309304    0.491234    -0.314938    -5.173078    -0.826052    -1.851328    -5.143410    -1.984282    1.698284    0.854895    -0.230292    -3.195805    10.158866    -5.389862    3.653065    -8.931489    10.248068    0.000000    0.000000    0.000000    2.786738    6.611332    -3.458935    2.172247    -1.058804    -1.828977    -3.250365    -3.049021    -12.391131    0.000000    0.000000    0.000000    
